<?xml version="1.0" standalone="no"?>
<!DOCTYPE svg PUBLIC "-//W3C//DTD SVG 20010904//EN"
 "http://www.w3.org/TR/2001/REC-SVG-20010904/DTD/svg10.dtd">
<svg version="1.0" xmlns="http://www.w3.org/2000/svg"
 width="512.000000pt" height="512.000000pt" viewBox="0 0 512.000000 512.000000"
 preserveAspectRatio="xMidYMid meet">
<metadata>
Created by Съели Сумели restaurant
</metadata>
<g transform="translate(0.000000,512.000000) scale(0.100000,-0.100000)"
fill="#000000" stroke="none">
<path d="M2380 4520 c-465 -48 -890 -248 -1220 -577 -320 -319 -525 -748 -574
-1198 -10 -93 -10 -337 0 -430 44 -401 205 -776 464 -1075 347 -402 822 -643
1345 -683 105 -8 345 0 440 15 636 101 1157 477 1435 1033 155 313 210 641
168 1003 -30 263 -129 532 -290 785 -330 518 -893 838 -1508 858 -71 2 -168 0
-260 -6z m415 -125 c17 -2 53 -7 80 -11 28 -3 59 -10 70 -15 11 -4 45 -14 75
-22 323 -83 637 -293 840 -563 218 -289 331 -626 331 -987 0 -230 -34 -407
-116 -604 -27 -64 -40 -91 -110 -213 -103 -178 -266 -363 -440 -500 -79 -62
-255 -166 -345 -202 -104 -43 -261 -89 -355 -104 -80 -13 -108 -15 -245 -18
-88 -2 -171 0 -185 5 -14 4 -34 10 -45 12 -121 30 -140 35 -225 70 -276 114
-507 298 -675 540 -151 220 -235 433 -276 707 -22 145 -18 389 9 532 74 391
284 741 583 970 117 89 123 93 215 145 122 68 251 122 360 149 39 9 81 20 94
24 13 3 53 9 90 12 38 4 76 9 86 12 21 7 149 7 184 1z"/>
<path d="M2420 4150 c-19 -4 -45 -10 -57 -13 -13 -3 -31 -7 -40 -9 -31 -6
-182 -70 -218 -92 -217 -133 -319 -332 -319 -624 1 -179 43 -300 152 -433 40
-49 155 -149 177 -154 20 -4 39 -10 115 -35 82 -26 135 -35 249 -41 43 -2 88
-6 100 -8 28 -5 86 -17 134 -28 60 -13 163 -60 214 -97 104 -75 180 -219 193
-366 15 -160 -41 -313 -152 -414 -44 -40 -158 -109 -158 -96 0 3 -12 0 -27 -6
-16 -6 -41 -13 -58 -16 -16 -2 -57 -10 -90 -16 -76 -15 -245 -4 -323 21 -30
10 -63 20 -72 23 -22 6 -123 65 -165 96 -48 36 -128 117 -172 173 -53 69 -126
217 -137 280 -4 19 -9 42 -12 50 -18 53 -21 251 -5 330 3 17 8 44 11 60 12 71
65 185 123 265 16 22 27 42 25 44 -7 7 -132 -77 -188 -126 -71 -63 -191 -216
-230 -294 -73 -142 -100 -255 -101 -414 -1 -99 10 -187 31 -245 6 -17 13 -39
15 -50 11 -54 88 -194 154 -280 188 -244 468 -391 786 -414 127 -10 151 -9
270 10 286 45 527 196 681 424 92 137 133 263 140 429 6 154 -25 283 -97 401
-59 96 -168 201 -261 250 -58 30 -186 77 -226 82 -11 1 -33 5 -50 9 -94 18
-159 24 -290 28 -77 2 -143 6 -146 9 -3 4 -14 8 -25 10 -34 8 -122 51 -170 83
-84 56 -155 166 -179 280 -16 74 -21 217 -9 263 53 201 205 317 460 351 44 6
219 6 240 1 8 -2 35 -7 60 -10 84 -11 231 -65 310 -114 141 -87 261 -233 314
-383 71 -199 67 -448 -8 -628 -15 -35 -25 -65 -22 -67 7 -7 117 95 164 153
178 219 252 516 192 771 -24 100 -91 247 -138 300 -10 11 -29 36 -44 55 -26
33 -152 157 -185 181 -123 91 -279 156 -425 179 -83 13 -261 19 -312 10z"/>
</g>
</svg> 